<?xml version="1.0" encoding="UTF-8"?>
<svg id="Layer_1" data-name="Layer 1" xmlns="http://www.w3.org/2000/svg" viewBox="0 0 482.91 588.54">
  <defs>
    <style>
      .cls-1 {
        fill: #fff;
      }
    </style>
  </defs>
  <path class="cls-1" d="M295.21,281.71l51.34,21.61c4.08,2.33,4.59,4.36,4.99,8.8,1.38,15.19,1.7,50.73-.03,65.58-.62,5.29-3.38,7.09-7.69,9.54-28.56,16.22-66.46,25.91-95.71,42.12-5.22,2.77-8.62,1.77-13.74,0-32.57-11.28-66.15-31.32-98.72-43.71-3.6-2.75-4.31-4.64-4.72-9.07-1.44-15.7-1.43-47.6,0-63.31.51-5.64,2.01-7.54,6.88-10.35,6.34-3.66,47.01-19.08,48.29-21.79.52-2.32-.91-1.6-2.3-2.22-13.88-6.21-33.47-12.29-45.99-19.54-4.88-2.82-6.37-4.7-6.88-10.35-1.07-11.76-1.32-39.16.03-50.64.49-4.17,2.06-6.05,5.39-8.4,31.37-12.44,62.36-29.93,93.78-41.76,3.33-1.25,6.95-3.36,10.54-3.36s6.52,1.87,9.72,3.03c32.3,11.63,64.6,29.76,96.91,42.08,2.88,1.66,3.85,4.07,4.22,7.27,1.39,11.91,1.1,39.56.03,51.79-.19,2.19-.18,3.53-1.33,5.56-4.14,7.31-47.03,18.83-54.99,27.12ZM323.91,196.68c.94-1.22-19.11-9.68-21.04-10.53-20.85-9.19-42.01-18.3-63.3-26.19l-81.05,36.16,82.15,35.13,83.24-34.57ZM233.03,243.96l-84.79-36.43-2.33,1.24,2.28,39.06,84.45,37.31,1.74-1.72-1.35-39.46ZM336.55,207.03l-88.43,38.49v39.64l88.43-39.64v-38.49ZM325.06,309.31l-47.82-20.4c-10.68,1.68-26.58,14.73-36.58,14.73-9.18,0-25.84-12.24-35.6-14.61l-46.53,20.84,83.27,36.04,83.26-36.6ZM147.05,320.79v49.98c0,.4-1.47,1.24-.67,2.84l86.25,39.06,1.75-2.8-1.38-50.98-85.95-38.1ZM248.12,412.72l87.9-37.87c1.66-2.89-.18-6.14-.17-8.87.05-12.92,2.13-28.59.75-41.22-.19-1.72-.11-2.87-1.77-3.94l-86.72,39.61v52.28Z"/>
  <path class="cls-1" d="M249.27,554.62c-.04.64-3.21,3.01.56,2.87,5.8-5.64,13.18-21.73,23.04-16.13,6.2,3.52,3.8,8.6.51,13.26-5.22,7.39-19.95,24.95-26.41,31.02-6.12,5.75-9.66,1.93-14.37-2.86-3.33-3.38-26.62-30.72-26.98-32.82-.97-5.6,4.1-10.69,9.72-9.72,4.16.72,13.92,13.73,17.3,17.24,3.77.18.56-2.34.56-2.86v-78.14c0-1.72,5.88-5.44,8.61-5.29s7.47,4.31,7.47,6.44c0,24.77,1.63,52.63,0,76.99Z"/>
  <path class="cls-1" d="M59.48,165.97c1.02.97,2.64,5.32,2.41,6.91-1.37,9.54-22.75,6.72-29.68,9.45l61.98,34.51c6.11,5.04.61,15.53-6.83,13.83l-63.75-33.98c1.02,7.86,14.9,27.81,2.92,31.67-6.99,2.25-8.45-.93-10.96-6.39C12.25,214.7-.22,181.6,0,175.46c.23-6.22,4.48-6.56,9.93-7.38,10.21-1.52,26.39-3.16,36.64-3.55,3.21-.12,10.7-.66,12.91,1.43Z"/>
  <path class="cls-1" d="M459.43,196.7l-61.74,33.05c-8.05,4.13-14.77-7.2-8.26-12.89l60.8-34.54c-7.79-3.03-29.11.91-29.85-10.42-.56-8.58,8.45-7.61,14.34-7.37,11.35.46,27.68,1.93,38.93,3.56,6.11.89,10.1,2.96,9.1,9.95-1.12,7.79-11.9,34.63-15.56,43.07-2.5,5.76-3.85,9.61-11.27,7.23-12.27-3.94,1.5-23.94,3.51-31.64Z"/>
  <path class="cls-1" d="M233.19,31.23c-5.17,3.34-11.28,15.78-16.91,17.01-6.62,1.45-11.86-2.5-10.67-9.49.4-2.33,20.33-25.97,23.54-29.37,4.63-4.92,10.54-13.2,17.75-7.39l29.75,36.98c.79,2.66-1.56,7.1-3.76,8.41-9.83,5.87-17.24-11.08-23.62-16.16v71.82c0,9.77-16.08,8.44-16.08,1.15V31.23Z"/>
  <path class="cls-1" d="M23.02,400.06l63.13-33.92c9.13-3.3,14.34,6.81,7.33,13.08l-58.97,32.92c6.47,2.68,27.55.13,27.47,10.33-.06,8.76-9.23,7.7-15.41,7.46-10.69-.41-27.17-1.99-37.81-3.53-5.02-.73-9.43-3.55-8.26-9.1l18.53-49.36c4.04-4.22,12.32-1.34,13.19,4.05,1.1,6.87-7.27,21.01-9.2,28.08Z"/>
  <path class="cls-1" d="M459.43,398.92c1.03-.97-9.75-21.36-8.97-26.76.79-5.45,9.05-9,12.93-4.2l18.55,48.18c.74,2.22-.56,6.81-2.31,8.16-2.2,1.7-35.07,5.37-40.31,5.63-6.52.33-16.63,2.21-17.76-6.41-1.69-12.91,19.81-7.62,27.53-11.39l-57.34-31.11c-8.93-5.24-4.85-18.28,5.71-14.93l61.97,32.81Z"/>
</svg>