<?xml version="1.0" encoding="UTF-8"?>
<svg id="Layer_1" data-name="Layer 1" xmlns="http://www.w3.org/2000/svg" viewBox="0 0 2159.81 2378.3">
  <defs>
    <style>
      .cls-1 {
        fill: #fff;
      }

      .cls-2 {
        fill: none;
        stroke: #fff;
        stroke-linecap: round;
        stroke-miterlimit: 10;
        stroke-width: 50px;
      }
    </style>
  </defs>
  <path class="cls-1" d="M738.52,1029.95c-3.6,25.57-44.6,26.63-47.89-1.11l-.15-396.93c.67-7.32,3.99-12.84,9.57-17.43l386.16-225.84c8.36-3.89,13.9-4.43,22.55-.91l171.53,99.55c92.57-13.42,193.12-22.67,284.46,2.46,137.61,37.86,166.61,142.2,87.01,257.44-10.18,14.74-32.34,44.6-45.74,55.26-20.06,15.94-47.19-1.65-38.95-25.95,2.71-7.99,12.55-15.56,17.99-22.02,31.17-37.02,71.66-91.56,61.02-143.05-10.92-52.88-80.05-74.73-126.35-82.65-56.44-9.66-114.38-6.92-171.18-2.3l145.52,85.96c6.17,3.9,10.67,9.52,12.23,16.77l.28,453.8c-1.37,15.03-13.14,19.73-24.37,26.63-122.85,75.47-250.71,143.3-374.15,217.85-8.33,3.24-13.88,2.5-21.84-1.21l-309.95-181.05c-1.01-.55-2.09-.65-3.21-.79-11.62-1.41-26.85.53-39.06.06-102.46-3.95-248.21-42.9-231.34-174.42,7.79-60.71,64.83-136.41,110.35-175.65,10.78-9.29,23.14-13.83,35.45-3.4,25.95,22-14.44,49.26-28.44,64.41-47.42,51.35-112.36,145.68-34.21,201.24,77.03,54.76,233.46,42.03,322.93,27.49,142.47-23.15,282.62-73.31,410.79-138.21l-86.2-17.79c-17.95-4.44-24.95-27.61-11.28-40.7,7.98-7.64,15.42-7.19,25.51-5.53,43.57,7.17,91.97,17.88,135.17,27.83,21.33,4.91,36.93,10.59,28.57,36.95-23.21,43.95-39.25,95.93-62.88,139.12-7.37,13.46-22.45,19.33-35.81,10.06-13.13-9.11-11.35-21.08-6.24-34.11,9.37-23.93,22.94-47.21,32.17-71.32-69.65,34.8-141.49,65.86-215.99,89v184l336-195v-391l-334.55,192.95-1.49,3.51c-2.35,26.06,3.43,58.49-.21,83.79-3.73,25.91-42.39,26.59-47.29.81l-.4-84.6-1.49-3.51-334.55-192.95v352.5ZM1435.51,633.47l-337.33-195.79-336.68,196.28,1.66,2.34,335.68,192.93,335.62-193.32,1.04-2.44ZM1074.52,1095.45c-69.45,19.54-140.14,35.4-212.01,43.51l212.01,124.49v-168Z"/>
  <path class="cls-1" d="M593.44,1304.85c40.28-58.56,133.69-47.02,155.13,20.08,1.02,3.18,6.05,21.1,6.05,46.51v137.42c46.97-15.97,87.9-3.83,117.01,36.21,45.43-23.23,108.99-15.17,128.28,37.31,59.27-34.64,132.73-3.52,139.05,67.26,7.59,84.92,7.99,295.84-21.57,370.96-58.6,148.94-231.89,196.76-373.73,138.56-110.22-45.22-199.13-193.3-275.24-284.56-23.75-28.48-74.37-70.64-84.54-103.39-23.16-74.61,54.44-137.11,124.28-103.83,26.22,12.49,46.9,45.64,70.71,62.09v-379.43c0-26.46,14.57-45.18,14.57-45.18ZM764.24,1559.32c-5.43,5.42-8.85,13.16-9.79,20.86-5.36,43.9,8.27,109.72-.7,150.45-6.83,31.01-44.74,27.29-48.32-15.31-9.99-118.88,7.98-251.34-.08-371.69-12.84-46.56-76.51-40.21-81.6,7.84l-1.93,447.45c-2.09,4.34-12.49,10.84-17.29,11.59-37.63,5.84-112.71-152.9-166.81-93.48-11.44,12.57-13.23,29.32-8.21,45.34,2.96,9.43,74.57,83.69,87.97,99.96,110.1,133.67,213.09,332.08,424.24,264.54,208.33-66.63,141.92-313.94,151.19-480.23-8.08-27.14-26.17-36.05-54.02-31.32-54.29,9.23-5.04,123.07-40.03,139.72-44.77,21.29-30.27-69.9-31.53-93.16-.71-13.08-3.1-49.43-6.08-59.28-6.29-20.8-32.57-28.36-52.34-23.27-50.89,13.1-14.88,125.14-30.29,161.45-5.52,13.01-30.7,12.02-38.4-.87-14.19-23.73,5.08-127.46-6.99-164.6-9.25-28.44-49.29-35.65-68.97-16Z"/>
  <path class="cls-2" d="M534.62,1444.41c-14.92-21.8-24.17-46.98-26.91-73.25-9.05-86.7,54.85-165.49,141.55-174.53s165.49,54.85,174.53,141.55c3.99,38.25-6.04,76.68-28.21,108.1"/>
</svg>